<?xml version="1.0" encoding="utf-8"?>
<!-- Generator: Adobe Illustrator 23.0.5, SVG Export Plug-In . SVG Version: 6.00 Build 0)  -->
<svg version="1.1" id="Layer_1" xmlns="http://www.w3.org/2000/svg" xmlns:xlink="http://www.w3.org/1999/xlink" x="0px" y="0px"
	 viewBox="0 0 175.96 191" style="enable-background:new 0 0 175.96 191;" xml:space="preserve">
<g>
	<g>
		<rect x="0" y="34" width="37" height="123"/>
	</g>
	<g>
		<rect x="47" y="34" width="37" height="123"/>
	</g>
	<path d="M30.99,0H6.01C2.69,0,0,2.69,0,6.01V8v11.99V26h6.01h24.98H37v-6.01V8V6.01C37,2.69,34.31,0,30.99,0z"/>
	<path d="M77.99,0H53.01C49.69,0,47,2.69,47,6.01V8v11.99V26h6.01h24.98H84v-6.01V8V6.01C84,2.69,81.31,0,77.99,0z"/>
	<path d="M53.01,191l24.98,0c3.32,0,6.01-2.69,6.01-6.01V183v-11.99V165h-6.01l-24.98,0H47v6.01L47,183v1.99
		C47,188.31,49.69,191,53.01,191z"/>
	<g>
		<g>
			<rect x="111" y="34" transform="matrix(0.9475 -0.3197 0.3197 0.9475 -23.7372 46.4198)" width="37" height="123"/>
		</g>
		<path d="M110.95,0.97L87.92,8.74c-3.06,1.03-4.68,4.42-3.62,7.56l0.64,1.88l3.83,11.36l1.92,5.7l5.54-1.87l23.03-7.77l5.54-1.87
			l-1.92-5.7l-3.83-11.36l-0.64-1.88C117.35,1.65,114.01-0.06,110.95,0.97z"/>
		<path d="M148.2,189.98l23.67-7.99c3.15-1.06,4.83-4.47,3.77-7.62l-0.64-1.88l-3.83-11.36l-1.92-5.7l-5.7,1.92l-23.67,7.99
			l-5.7,1.92l1.92,5.7l3.83,11.36l0.64,1.88C141.65,189.35,145.06,191.04,148.2,189.98z"/>
	</g>
	<path d="M6.01,191h24.98c3.32,0,6.01-2.69,6.01-6.01V183l0-11.99V165h-6.01H6.01H0l0,6.01L0,183l0,1.99C0,188.31,2.69,191,6.01,191
		z"/>
</g>
</svg>
